<svg xmlns="http://www.w3.org/2000/svg" version="1.1" xmlns:xlink="http://www.w3.org/1999/xlink" viewBox="0 0 200 200"><rect width="200" height="200" fill="url('#gradient')"></rect><defs><linearGradient id="gradient" gradientTransform="rotate(95 0.5 0.5)"><stop offset="0%" stop-color="#ee9044"></stop><stop offset="100%" stop-color="#1f1f1f"></stop></linearGradient></defs><g><g fill="#FFFF" transform="matrix(6.392114989733059,0,0,6.392114989733059,17.1543204114961,145.44731329692706)" stroke="#6d4321" stroke-width="0.2"><path d="M9.89-8.57L9.89-6.03L4.50-6.03L4.50-2.64L10.87-2.64L10.87 0L1.07 0L1.07-14.22L10.89-14.22L10.89-11.57L4.50-11.57L4.50-8.57L9.89-8.57ZM21.17 0L20.34-2.66L15.64-2.66L14.82 0L11.16 0L16.38-14.22L19.60-14.22L24.85 0L21.17 0ZM17.99-10.23L16.46-5.30L19.52-5.30L17.99-10.23Z"></path></g></g></svg>